<?xml version="1.0" encoding="utf-8"?>
<!-- Generator: Adobe Illustrator 24.0.2, SVG Export Plug-In . SVG Version: 6.00 Build 0)  -->
<svg version="1.1" id="Layer_1" xmlns="http://www.w3.org/2000/svg" xmlns:xlink="http://www.w3.org/1999/xlink" x="0px" y="0px"
	 viewBox="0 0 652.46 480.65" style="enable-background:new 0 0 652.46 480.65;" xml:space="preserve">
<style type="text/css">
	.st0{fill:#BEBEBE;}
	.st1{fill:#E9E9E9;}
	.st2{fill:#FCFCFC;}
	.st3{fill:#D4D8DC;}
	.st4{fill:#00AEDA;}
	.st5{fill:#FFFFFF;}
</style>
<g>
	<path class="st0" d="M395.61,399.35h-68.99h-68.99c0,0-8.1,52-44.59,69.2c-2.1,1-3.4,3.2-3.4,5.8l0,0c0,3.5,2.5,6.3,5.6,6.3h111.48
		H438.2c3.1,0,5.6-2.8,5.6-6.3l0,0c0-2.5-1.4-4.8-3.4-5.8C403.71,451.35,395.61,399.35,395.61,399.35z"/>
	<path class="st1" d="M252.13,419.55c-5.9,16.5-17.6,38.8-39.19,48.9c-2.1,1-3.4,3.2-3.4,5.8c0,3.5,2.5,6.3,5.6,6.3h111.48H438.1
		c3.1,0,5.6-2.8,5.6-6.3c0-2.5-1.4-4.8-3.4-5.8c-21.5-10.1-33.19-32.2-39.09-48.7c-23.2-5.7-48.39-8.9-74.89-8.9
		C300.13,410.85,275.03,413.95,252.13,419.55z"/>
	<path class="st2" d="M440.3,468.45c-1.9-0.9-3.6-1.9-5.3-2.9c-35.09,1.9-71.29,3-108.38,3s-73.19-1-108.38-3c-1.7,1-3.5,2-5.3,2.9
		c-2.1,1-3.4,3.2-3.4,5.8c0,3.5,2.5,6.3,5.6,6.3h111.48h111.48c3.1,0,5.6-2.8,5.6-6.3C443.7,471.75,442.3,469.45,440.3,468.45z"/>
	<path class="st2" d="M0.37,377.65v23.7c0,14.6,11.8,26.5,26.5,26.5h599.01c14.6,0,26.5-11.8,26.5-26.5v-23.7H0.37z"/>
	<g>
		<path class="st3" d="M334.62,412.75h-16.6c-0.9,0-1.7-0.8-1.7-1.7v-16.6c0-0.9,0.8-1.7,1.7-1.7h16.6c0.9,0,1.7,0.8,1.7,1.7v16.6
			C336.32,412.05,335.62,412.75,334.62,412.75z"/>
		<path class="st4" d="M330.32,407.95h-8c-0.7,0-1.2-0.5-1.2-1.2v-7.9c0-0.7,0.5-1.2,1.2-1.2h7.9c0.7,0,1.2,0.5,1.2,1.2v7.9
			C331.52,407.35,330.92,407.95,330.32,407.95z"/>
	</g>
</g>
<g>
	<path class="st4" d="M652.37,378.3c0.2-1.4,0-2.87,0-4.27L652,31.3C652,14,638,0,620.6,0H31.3C14,0,0,14,0,31.3v342.9
		c0,1.4,0.1,2.8,0.3,4.1H652.37z"/>
	<path class="st5" d="M623.3,355.6H28.7c-7.4,0-13.4-6-13.4-13.4V29.1c0-7.4,6-13.4,13.4-13.4h594.7c7.4,0,13.4,6,13.4,13.4v313.2
		C636.7,349.6,630.7,355.6,623.3,355.6z"/>
</g>
</svg>
