<?xml version="1.0" encoding="utf-8"?>
<!-- Generator: Adobe Illustrator 22.1.0, SVG Export Plug-In . SVG Version: 6.00 Build 0)  -->
<svg version="1.1" id="Layer_1" xmlns="http://www.w3.org/2000/svg" xmlns:xlink="http://www.w3.org/1999/xlink" x="0px" y="0px"
	 viewBox="0 0 652.1 103" style="enable-background:new 0 0 652.1 103;" xml:space="preserve">
<style type="text/css">
	.st0{fill:#BEBEBE;}
	.st1{fill:#E9E9E9;}
	.st2{fill:#FCFCFC;}
	.st3{fill:#D4D8DC;}
	.st4{fill:#00AEDA;}
</style>
<g>
	<path class="st0" d="M395.3,21.7h-69h-69c0,0-8.1,52-44.6,69.2c-2.1,1-3.4,3.2-3.4,5.8l0,0c0,3.5,2.5,6.3,5.6,6.3h111.5h111.5
		c3.1,0,5.6-2.8,5.6-6.3l0,0c0-2.5-1.4-4.8-3.4-5.8C403.4,73.7,395.3,21.7,395.3,21.7z"/>
	<path class="st1" d="M251.8,41.9c-5.9,16.5-17.6,38.8-39.2,48.9c-2.1,1-3.4,3.2-3.4,5.8c0,3.5,2.5,6.3,5.6,6.3h111.5h111.5
		c3.1,0,5.6-2.8,5.6-6.3c0-2.5-1.4-4.8-3.4-5.8c-21.5-10.1-33.2-32.2-39.1-48.7c-23.2-5.7-48.4-8.9-74.9-8.9
		C299.8,33.2,274.7,36.3,251.8,41.9z"/>
	<path class="st2" d="M440,90.8c-1.9-0.9-3.6-1.9-5.3-2.9c-35.1,1.9-71.3,3-108.4,3s-73.2-1-108.4-3c-1.7,1-3.5,2-5.3,2.9
		c-2.1,1-3.4,3.2-3.4,5.8c0,3.5,2.5,6.3,5.6,6.3h111.5h111.5c3.1,0,5.6-2.8,5.6-6.3C443.4,94.1,442,91.8,440,90.8z"/>
	<path class="st2" d="M0,0v23.7c0,14.6,11.8,26.5,26.5,26.5h599.1c14.6,0,26.5-11.8,26.5-26.5V0H0z"/>
	<g>
		<path class="st3" d="M334.3,35.1h-16.6c-0.9,0-1.7-0.8-1.7-1.7V16.8c0-0.9,0.8-1.7,1.7-1.7h16.6c0.9,0,1.7,0.8,1.7,1.7v16.6
			C336,34.4,335.3,35.1,334.3,35.1z"/>
		<path class="st4" d="M330,30.3h-8c-0.7,0-1.2-0.5-1.2-1.2v-7.9c0-0.7,0.5-1.2,1.2-1.2h7.9c0.7,0,1.2,0.5,1.2,1.2v7.9
			C331.2,29.7,330.6,30.3,330,30.3z"/>
	</g>
</g>
</svg>
