<?xml version="1.0" encoding="utf-8"?>
<!-- Generator: Adobe Illustrator 23.0.3, SVG Export Plug-In . SVG Version: 6.00 Build 0)  -->
<svg version="1.1" id="Layer_1" xmlns="http://www.w3.org/2000/svg" xmlns:xlink="http://www.w3.org/1999/xlink" x="0px" y="0px" width="159" height="34"
	 viewBox="0 0 331.76 71.05" style="enable-background:new 0 0 331.76 71.05;" xml:space="preserve">
<style type="text/css">
	.st0{fill:#00ADD8;}
	.st1{fill:#043255;}
	.st2{font-family:'Gadugi';}
	.st3{font-size:42px;}
</style>
<g>
	<g>
		<circle class="st0" cx="37.03" cy="5.1" r="5.1"/>
		<circle class="st0" cx="25.83" cy="15.3" r="5.1"/>
		<circle class="st0" cx="15.63" cy="25.5" r="5.1"/>
		<circle class="st1" cx="5.1" cy="35.35" r="5.1"/>
		<circle class="st0" cx="46.87" cy="15.3" r="5.1"/>
		<circle class="st0" cx="25.47" cy="35.7" r="5.1"/>
		<circle class="st0" cx="35.47" cy="45.7" r="5.1"/>
		<circle class="st1" cx="14.93" cy="45.55" r="5.1"/>
		<circle class="st0" cx="56.7" cy="25.5" r="5.1"/>
		<circle class="st1" cx="46.18" cy="35.86" r="5.1"/>
		<circle class="st1" cx="36.18" cy="25.86" r="5.1"/>
		<circle class="st1" cx="24.77" cy="55.75" r="5.1"/>
		<circle class="st0" cx="66.9" cy="35.7" r="5.1"/>
		<circle class="st1" cx="56.38" cy="46.06" r="5.1"/>
		<circle class="st1" cx="46.18" cy="56.26" r="5.1"/>
		<circle class="st1" cx="34.97" cy="65.95" r="5.1"/>
	</g>
	<text transform="matrix(1 0 0 1 85.001 48.7558)" class="st1 st2 st3">Single</text>
	<text transform="matrix(1 0 0 1 204.001 48.7558)" class="st0 st2 st3">Ledger</text>
</g>
</svg>
