<?xml version="1.0" encoding="utf-8"?>
<!-- Generator: Adobe Illustrator 24.0.2, SVG Export Plug-In . SVG Version: 6.00 Build 0)  -->
<svg version="1.1" id="Layer_1" xmlns="http://www.w3.org/2000/svg" xmlns:xlink="http://www.w3.org/1999/xlink" x="0px" y="0px"
	 viewBox="0 0 159 34" style="enable-background:new 0 0 159 34;" xml:space="preserve">
<style type="text/css">
	.st0{fill:#00ADD8;}
	.st1{fill:#043255;}
	.st2{enable-background:new    ;}
</style>
<g>
	<g>
		<circle class="st0" cx="17.8" cy="2.4" r="2.4"/>
		<circle class="st0" cx="12.5" cy="7.3" r="2.4"/>
		<circle class="st0" cx="7.6" cy="12.2" r="2.4"/>
		<circle class="st1" cx="2.6" cy="16.9" r="2.4"/>
		<circle class="st0" cx="22.5" cy="7.3" r="2.4"/>
		<circle class="st0" cx="12.3" cy="17.1" r="2.4"/>
		<circle class="st0" cx="17.1" cy="21.9" r="2.4"/>
		<circle class="st1" cx="7.3" cy="21.8" r="2.4"/>
		<circle class="st0" cx="27.3" cy="12.2" r="2.4"/>
		<circle class="st1" cx="22.2" cy="17.2" r="2.4"/>
		<circle class="st1" cx="17.4" cy="12.4" r="2.4"/>
		<circle class="st1" cx="12" cy="26.7" r="2.4"/>
		<circle class="st0" cx="32.1" cy="17.1" r="2.4"/>
		<circle class="st1" cx="27.1" cy="22" r="2.4"/>
		<circle class="st1" cx="22.2" cy="26.9" r="2.4"/>
		<circle class="st1" cx="16.9" cy="31.6" r="2.4"/>
	</g>
	<g class="st2">
		<path class="st1" d="M42,22.8v-1.9c0.2,0.2,0.5,0.4,0.8,0.5s0.6,0.3,1,0.4c0.3,0.1,0.7,0.2,1,0.3c0.3,0.1,0.7,0.1,1,0.1
			c1,0,1.8-0.2,2.3-0.6c0.5-0.4,0.8-0.9,0.8-1.6c0-0.4-0.1-0.7-0.3-1s-0.4-0.5-0.7-0.8c-0.3-0.2-0.6-0.5-1-0.7
			c-0.4-0.2-0.8-0.4-1.3-0.7c-0.5-0.2-0.9-0.5-1.4-0.8c-0.4-0.3-0.8-0.5-1.1-0.8c-0.3-0.3-0.6-0.7-0.7-1c-0.2-0.4-0.3-0.8-0.3-1.4
			c0-0.6,0.1-1.2,0.4-1.7c0.3-0.5,0.7-0.9,1.1-1.2c0.5-0.3,1-0.5,1.6-0.7C45.7,9.1,46.3,9,46.9,9c1.4,0,2.4,0.2,3,0.5v1.9
			c-0.8-0.6-1.9-0.9-3.2-0.9c-0.4,0-0.7,0-1.1,0.1c-0.4,0.1-0.7,0.2-1,0.4c-0.3,0.2-0.5,0.4-0.7,0.7s-0.3,0.6-0.3,1
			c0,0.4,0.1,0.7,0.2,0.9c0.1,0.3,0.3,0.5,0.6,0.7s0.6,0.4,1,0.6c0.4,0.2,0.8,0.4,1.3,0.7c0.5,0.2,1,0.5,1.4,0.8
			c0.5,0.3,0.8,0.6,1.2,0.9c0.3,0.3,0.6,0.7,0.8,1.1c0.2,0.4,0.3,0.9,0.3,1.4c0,0.7-0.1,1.3-0.4,1.8s-0.6,0.9-1.1,1.2
			c-0.5,0.3-1,0.5-1.6,0.7c-0.6,0.1-1.2,0.2-1.9,0.2c-0.2,0-0.5,0-0.8-0.1c-0.3,0-0.7-0.1-1-0.2c-0.3-0.1-0.7-0.2-1-0.3
			C42.4,23,42.2,22.9,42,22.8z"/>
		<path class="st1" d="M53.9,10.7c-0.3,0-0.5-0.1-0.7-0.3c-0.2-0.2-0.3-0.4-0.3-0.7c0-0.3,0.1-0.6,0.3-0.8c0.2-0.2,0.4-0.3,0.7-0.3
			c0.3,0,0.5,0.1,0.8,0.3C54.9,9.1,55,9.4,55,9.7c0,0.3-0.1,0.5-0.3,0.7C54.5,10.6,54.2,10.7,53.9,10.7z M54.7,23.3h-1.6v-10h1.6
			V23.3z"/>
		<path class="st1" d="M66.3,23.3h-1.6v-5.7c0-2.1-0.8-3.2-2.3-3.2c-0.8,0-1.5,0.3-2,0.9c-0.5,0.6-0.8,1.4-0.8,2.3v5.7H58v-10h1.6
			V15h0c0.8-1.3,1.9-1.9,3.3-1.9c1.1,0,1.9,0.4,2.5,1.1c0.6,0.7,0.9,1.7,0.9,3.1V23.3z"/>
		<path class="st1" d="M77.9,22.5c0,3.7-1.8,5.5-5.3,5.5c-1.2,0-2.3-0.2-3.3-0.7v-1.6c1.1,0.6,2.2,0.9,3.2,0.9
			c2.5,0,3.7-1.3,3.7-3.9v-1.1h0c-0.8,1.3-1.9,1.9-3.5,1.9c-1.3,0-2.3-0.4-3-1.3c-0.8-0.9-1.1-2.1-1.1-3.6c0-1.7,0.4-3.1,1.2-4.1
			s1.9-1.5,3.4-1.5c1.4,0,2.4,0.5,3,1.6h0v-1.4h1.6V22.5z M76.3,18.8v-1.5c0-0.8-0.3-1.5-0.8-2.1s-1.2-0.9-2-0.9
			c-1,0-1.8,0.4-2.3,1.1c-0.6,0.7-0.8,1.7-0.8,3c0,1.1,0.3,2,0.8,2.7c0.5,0.7,1.3,1,2.1,1c0.9,0,1.6-0.3,2.2-1
			C76,20.6,76.3,19.8,76.3,18.8z"/>
		<path class="st1" d="M82.8,23.3h-1.6V8.5h1.6V23.3z"/>
		<path class="st1" d="M94.1,18.7H87c0,1.1,0.3,2,0.9,2.6c0.6,0.6,1.4,0.9,2.4,0.9c1.1,0,2.2-0.4,3.1-1.1v1.5c-0.9,0.6-2.1,1-3.5,1
			c-1.4,0-2.5-0.5-3.3-1.4c-0.8-0.9-1.2-2.2-1.2-3.9c0-1.6,0.4-2.8,1.3-3.8c0.9-1,2-1.5,3.3-1.5s2.3,0.4,3.1,1.3s1.1,2,1.1,3.5V18.7
			z M92.5,17.3c0-0.9-0.2-1.7-0.7-2.2c-0.4-0.5-1.1-0.8-1.8-0.8c-0.8,0-1.4,0.3-1.9,0.8s-0.9,1.3-1,2.1H92.5z"/>
	</g>
	<g class="st2">
		<path class="st0" d="M106.9,23.3h-7.3V9.3h1.6v12.6h5.7V23.3z"/>
		<path class="st0" d="M116.9,18.7h-7.1c0,1.1,0.3,2,0.9,2.6c0.6,0.6,1.4,0.9,2.4,0.9c1.1,0,2.2-0.4,3.1-1.1v1.5
			c-0.9,0.6-2.1,1-3.5,1c-1.4,0-2.5-0.5-3.3-1.4c-0.8-0.9-1.2-2.2-1.2-3.9c0-1.6,0.4-2.8,1.3-3.8c0.9-1,2-1.5,3.3-1.5
			s2.3,0.4,3.1,1.3s1.1,2,1.1,3.5V18.7z M115.3,17.3c0-0.9-0.2-1.7-0.7-2.2c-0.4-0.5-1.1-0.8-1.8-0.8c-0.8,0-1.4,0.3-1.9,0.8
			s-0.9,1.3-1,2.1H115.3z"/>
		<path class="st0" d="M127.9,23.3h-1.6v-1.7h0c-0.7,1.3-1.9,1.9-3.5,1.9c-1.3,0-2.3-0.4-3-1.3c-0.8-0.9-1.1-2.1-1.1-3.7
			c0-1.7,0.4-3,1.3-4s2-1.5,3.3-1.5c1.4,0,2.4,0.5,3,1.6h0V8.5h1.6V23.3z M126.3,18.8v-1.5c0-0.8-0.3-1.5-0.8-2.1s-1.2-0.8-2-0.8
			c-1,0-1.8,0.4-2.3,1.1c-0.6,0.7-0.8,1.7-0.8,3c0,1.2,0.3,2.1,0.8,2.7c0.5,0.7,1.3,1,2.2,1c0.9,0,1.6-0.3,2.2-1
			C126,20.6,126.3,19.8,126.3,18.8z"/>
		<path class="st0" d="M139.8,22.5c0,3.7-1.8,5.5-5.3,5.5c-1.2,0-2.3-0.2-3.3-0.7v-1.6c1.1,0.6,2.2,0.9,3.2,0.9
			c2.5,0,3.7-1.3,3.7-3.9v-1.1h0c-0.8,1.3-1.9,1.9-3.5,1.9c-1.3,0-2.3-0.4-3-1.3c-0.8-0.9-1.1-2.1-1.1-3.6c0-1.7,0.4-3.1,1.2-4.1
			s1.9-1.5,3.4-1.5c1.4,0,2.4,0.5,3,1.6h0v-1.4h1.6V22.5z M138.1,18.8v-1.5c0-0.8-0.3-1.5-0.8-2.1s-1.2-0.9-2-0.9
			c-1,0-1.8,0.4-2.3,1.1c-0.6,0.7-0.8,1.7-0.8,3c0,1.1,0.3,2,0.8,2.7c0.5,0.7,1.3,1,2.1,1c0.9,0,1.6-0.3,2.2-1
			C137.9,20.6,138.1,19.8,138.1,18.8z"/>
		<path class="st0" d="M151.1,18.7H144c0,1.1,0.3,2,0.9,2.6c0.6,0.6,1.4,0.9,2.4,0.9c1.1,0,2.2-0.4,3.1-1.1v1.5
			c-0.9,0.6-2.1,1-3.5,1c-1.4,0-2.5-0.5-3.3-1.4c-0.8-0.9-1.2-2.2-1.2-3.9c0-1.6,0.4-2.8,1.3-3.8c0.9-1,2-1.5,3.3-1.5
			s2.3,0.4,3.1,1.3s1.1,2,1.1,3.5V18.7z M149.4,17.3c0-0.9-0.2-1.7-0.7-2.2c-0.4-0.5-1.1-0.8-1.8-0.8c-0.8,0-1.4,0.3-1.9,0.8
			s-0.9,1.3-1,2.1H149.4z"/>
		<path class="st0" d="M158.8,14.9c-0.3-0.2-0.7-0.3-1.2-0.3c-0.7,0-1.3,0.3-1.7,1c-0.5,0.6-0.7,1.5-0.7,2.6v5.1h-1.6v-10h1.6v2.1h0
			c0.2-0.7,0.6-1.3,1.1-1.7c0.5-0.4,1-0.6,1.6-0.6c0.4,0,0.7,0,1,0.1V14.9z"/>
	</g>
</g>
</svg>
